General
Complete name                  : La_saga_Crepusculo_-_Amanecer_Parte_2_[TS-Screener].avi
Format                         : AVI
Format/Info                    : Audio Video Interleave
File size                      : 956 MiB
Duration                       : 1h 44mn
Overall bit rate               : 1 284 Kbps
Writing application            : VirtualDubMod 1.5.10.2 (build 2540/release)
Writing library                : VirtualDubMod build 2540/release

Video
ID                             : 0
Format                         : MPEG-4 Visual
Format profile                 : Simple@L1
Format settings, BVOP          : No
Format settings, QPel          : No
Format settings, GMC           : No warppoints
Format settings, Matrix        : Default (H.263)
Codec ID                       : DIVX
Codec ID/Info                  : Project Mayo
Codec ID/Hint                  : DivX 4
Duration                       : 1h 44mn
Bit rate                       : 826 Kbps
Width                          : 620 pixels
Height                         : 340 pixels
Display aspect ratio           : 16:9
Frame rate                     : 23.976 fps
Color space                    : YUV
Chroma subsampling             : 4:2:0
Bit depth                      : 8 bits
Scan type                      : Progressive
Compression mode               : Lossy
Bits/(Pixel*Frame)             : 0.163
Stream size                    : 615 MiB (64%)
Writing library                : Lavc52.45.0

Audio
ID                             : 1
Format                         : AC-3
Format/Info                    : Audio Coding 3
Mode extension                 : CM (complete main)
Codec ID                       : 2000
Duration                       : 1h 44mn
Bit rate mode                  : Constant
Bit rate                       : 448 Kbps
Channel(s)                     : 2 channels
Channel positions              : Front: L R
Sampling rate                  : 48.0 KHz
Bit depth                      : 16 bits
Compression mode               : Lossy
Stream size                    : 334 MiB (35%)
Alignment                      : Split accross interleaves
Interleave, duration           : 42 ms (1.00 video frame)
Interleave, preload duration   : 500 ms